<svg aria-hidden="true" style="position: absolute; width: 0; height: 0; overflow: hidden;" version="1.1" xmlns="http://www.w3.org/2000/svg" xmlns:xlink="http://www.w3.org/1999/xlink">
<defs>
<symbol id="icon-arrow-bold-down" viewBox="0 0 20 20">
<title>arrow-bold-down</title>
<path d="M2.5 10h3.5v-7h8v7h3.5l-7.5 7.5-7.5-7.5z"></path>
</symbol>
<symbol id="icon-arrow-bold-up" viewBox="0 0 20 20">
<title>arrow-bold-up</title>
<path d="M10 2.5l7.5 7.5h-3.5v7h-8v-7h-3.5l7.5-7.5z"></path>
</symbol>
<symbol id="icon-bookmark" viewBox="0 0 20 20">
<title>bookmark</title>
<path d="M14 2v17l-4-4-4 4v-17c0-0.553 0.585-1.020 1-1h6c0.689-0.020 1 0.447 1 1z"></path>
</symbol>
<symbol id="icon-chevron-thin-right" viewBox="0 0 20 20">
<title>chevron-thin-right</title>
<path d="M13.25 10l-7.141-7.42c-0.268-0.27-0.268-0.707 0-0.979 0.268-0.27 0.701-0.27 0.969 0l7.83 7.908c0.268 0.271 0.268 0.709 0 0.979l-7.83 7.908c-0.268 0.271-0.701 0.27-0.969 0s-0.268-0.707 0-0.979l7.141-7.417z"></path>
</symbol>
<symbol id="icon-trash" viewBox="0 0 20 20">
<title>trash</title>
<path d="M3.389 7.113l1.101 10.908c0.061 0.461 2.287 1.977 5.51 1.979 3.225-0.002 5.451-1.518 5.511-1.979l1.102-10.908c-1.684 0.942-4.201 1.387-6.613 1.387-2.41 0-4.928-0.445-6.611-1.387zM13.168 1.51l-0.859-0.951c-0.332-0.473-0.692-0.559-1.393-0.559h-1.831c-0.7 0-1.061 0.086-1.392 0.559l-0.859 0.951c-2.57 0.449-4.434 1.64-4.434 2.519v0.17c0 1.547 3.403 2.801 7.6 2.801 4.198 0 7.601-1.254 7.601-2.801v-0.17c0-0.879-1.863-2.070-4.433-2.519zM12.070 4.34l-1.070-1.34h-2l-1.068 1.34h-1.7c0 0 1.862-2.221 2.111-2.522 0.19-0.23 0.384-0.318 0.636-0.318h2.043c0.253 0 0.447 0.088 0.637 0.318 0.248 0.301 2.111 2.522 2.111 2.522h-1.7z"></path>
</symbol>
<symbol id="icon-bell" viewBox="0 0 20 20">
<title>bell</title>
<path d="M14.65 8.512c-2.28-4.907-3.466-6.771-7.191-6.693-1.327 0.027-1.009-0.962-2.021-0.587-1.010 0.375-0.143 0.924-1.177 1.773-2.902 2.383-2.635 4.587-1.289 9.84 0.567 2.213-1.367 2.321-0.602 4.465 0.559 1.564 4.679 2.219 9.025 0.607s7.086-4.814 6.527-6.378c-0.765-2.145-2.311-0.961-3.272-3.027zM10.924 16.595c-3.882 1.44-7.072 0.594-7.207 0.217-0.232-0.65 1.253-2.816 5.691-4.463s6.915-1.036 7.174-0.311c0.153 0.429-1.775 3.116-5.658 4.557zM9.676 13.101c-2.029 0.753-3.439 1.614-4.353 2.389 0.643 0.584 1.847 0.726 3.046 0.281 1.527-0.565 2.466-1.866 2.095-2.904-0.005-0.013-0.011-0.023-0.016-0.036-0.251 0.082-0.508 0.171-0.772 0.27z"></path>
</symbol>
<symbol id="icon-chat" viewBox="0 0 20 20">
<title>chat</title>
<path d="M5.8 12.2v-6.2h-3.8c-1.1 0-2 0.9-2 2v6c0 1.1 0.9 2 2 2h1v3l3-3h5c1.1 0 2-0.9 2-2v-1.82c-0.064 0.014-0.132 0.021-0.2 0.021l-7-0.001zM18 1h-9c-1.1 0-2 0.9-2 2v8h7l3 3v-3h1c1.1 0 2-0.899 2-2v-6c0-1.1-0.9-2-2-2z"></path>
</symbol>
<symbol id="icon-check" viewBox="0 0 20 20">
<title>check</title>
<path d="M8.294 16.998c-0.435 0-0.847-0.203-1.111-0.553l-3.573-4.721c-0.465-0.613-0.344-1.486 0.27-1.951 0.615-0.467 1.488-0.344 1.953 0.27l2.351 3.104 5.911-9.492c0.407-0.652 1.267-0.852 1.921-0.445s0.854 1.266 0.446 1.92l-6.984 11.21c-0.242 0.391-0.661 0.635-1.12 0.656-0.022 0.002-0.042 0.002-0.064 0.002z"></path>
</symbol>
<symbol id="icon-cross" viewBox="0 0 20 20">
<title>cross</title>
<path d="M14.348 14.849c-0.469 0.469-1.229 0.469-1.697 0l-2.651-3.030-2.651 3.029c-0.469 0.469-1.229 0.469-1.697 0-0.469-0.469-0.469-1.229 0-1.697l2.758-3.15-2.759-3.152c-0.469-0.469-0.469-1.228 0-1.697s1.228-0.469 1.697 0l2.652 3.031 2.651-3.031c0.469-0.469 1.228-0.469 1.697 0s0.469 1.229 0 1.697l-2.758 3.152 2.758 3.15c0.469 0.469 0.469 1.229 0 1.698z"></path>
</symbol>
<symbol id="icon-heart-outlined" viewBox="0 0 20 20">
<title>heart-outlined</title>
<path d="M17.19 4.156c-1.672-1.535-4.383-1.535-6.055 0l-1.135 1.041-1.136-1.041c-1.672-1.535-4.382-1.535-6.054 0-1.881 1.726-1.881 4.519 0 6.245l7.19 6.599 7.19-6.599c1.88-1.726 1.88-4.52 0-6.245zM16.124 9.375l-6.124 5.715-6.125-5.715c-0.617-0.567-0.856-1.307-0.856-2.094s0.138-1.433 0.756-1.999c0.545-0.501 1.278-0.777 2.063-0.777s1.517 0.476 2.062 0.978l2.1 1.825 2.099-1.826c0.546-0.502 1.278-0.978 2.063-0.978s1.518 0.276 2.063 0.777c0.618 0.566 0.755 1.212 0.755 1.999s-0.238 1.528-0.856 2.095z"></path>
</symbol>
<symbol id="icon-help" viewBox="0 0 20 20">
<title>help</title>
<path d="M14.090 2.233c-1.14-0.822-2.572-1.233-4.296-1.233-1.311 0-2.418 0.289-3.317 0.868-1.427 0.906-2.185 2.445-2.277 4.615h3.307c0-0.633 0.185-1.24 0.553-1.828 0.369-0.586 0.995-0.879 1.878-0.879 0.898 0 1.517 0.238 1.854 0.713 0.339 0.477 0.508 1.004 0.508 1.582 0 0.504-0.252 0.965-0.557 1.383-0.167 0.244-0.387 0.469-0.661 0.674 0 0-1.793 1.15-2.58 2.074-0.456 0.535-0.497 1.338-0.538 2.488-0.002 0.082 0.029 0.252 0.315 0.252s2.316 0 2.571 0c0.256 0 0.309-0.189 0.312-0.274 0.018-0.418 0.064-0.633 0.141-0.875 0.144-0.457 0.538-0.855 0.979-1.199l0.91-0.627c0.822-0.641 1.477-1.166 1.767-1.578 0.494-0.676 0.842-1.51 0.842-2.5-0.001-1.615-0.571-2.832-1.711-3.656zM9.741 14.924c-1.139-0.035-2.079 0.754-2.115 1.99-0.035 1.234 0.858 2.051 1.998 2.084 1.189 0.035 2.104-0.727 2.141-1.963 0.034-1.236-0.834-2.076-2.024-2.111z"></path>
</symbol>
<symbol id="icon-home" viewBox="0 0 20 20">
<title>home</title>
<path d="M18.672 11h-1.672v6c0 0.445-0.194 1-1 1h-4v-6h-4v6h-4c-0.806 0-1-0.555-1-1v-6h-1.672c-0.598 0-0.47-0.324-0.060-0.748l8.024-8.032c0.195-0.202 0.451-0.302 0.708-0.312 0.257 0.010 0.513 0.109 0.708 0.312l8.023 8.031c0.411 0.425 0.539 0.749-0.059 0.749z"></path>
</symbol>
<symbol id="icon-key" viewBox="0 0 20 20">
<title>key</title>
<path d="M17.691 4.725c-0.503-2.977-3.22-4.967-6.069-4.441s-5.256 2.816-4.753 5.795c0.107 0.641 0.408 1.644 0.763 2.365l-5.175 7.723c-0.191 0.285-0.299 0.799-0.242 1.141l0.333 1.971c0.058 0.342 0.372 0.572 0.7 0.514l1.516-0.281c0.328-0.059 0.744-0.348 0.924-0.639l2.047-3.311 0.018-0.022 1.386-0.256 2.39-3.879c0.785 0.139 1.912 0.092 2.578-0.031 2.848-0.526 4.087-3.67 3.584-6.649zM15.166 6.252c-0.784 1.17-1.584 0.346-2.703-0.475-1.119-0.818-2.135-1.322-1.352-2.492s2.326-1.455 3.447-0.635c1.12 0.819 1.391 2.432 0.608 3.602z"></path>
</symbol>
<symbol id="icon-location-pin" viewBox="0 0 20 20">
<title>location-pin</title>
<path d="M10 2.009c-2.762 0-5 2.229-5 4.99 0 4.774 5 11 5 11s5-6.227 5-11c0-2.76-2.238-4.99-5-4.99zM10 9.76c-1.492 0-2.7-1.209-2.7-2.7s1.208-2.7 2.7-2.7c1.49 0 2.699 1.209 2.699 2.7s-1.209 2.7-2.699 2.7z"></path>
</symbol>
<symbol id="icon-magnifying-glass" viewBox="0 0 20 20">
<title>magnifying-glass</title>
<path d="M17.545 15.467l-3.779-3.779c0.57-0.935 0.898-2.035 0.898-3.21 0-3.417-2.961-6.377-6.378-6.377s-6.186 2.769-6.186 6.186c0 3.416 2.961 6.377 6.377 6.377 1.137 0 2.2-0.309 3.115-0.844l3.799 3.801c0.372 0.371 0.975 0.371 1.346 0l0.943-0.943c0.371-0.371 0.236-0.84-0.135-1.211zM4.004 8.287c0-2.366 1.917-4.283 4.282-4.283s4.474 2.107 4.474 4.474c0 2.365-1.918 4.283-4.283 4.283s-4.473-2.109-4.473-4.474z"></path>
</symbol>
<symbol id="icon-mail" viewBox="0 0 20 20">
<title>mail</title>
<path d="M1.574 5.286c0.488 0.262 7.248 3.894 7.5 4.029s0.578 0.199 0.906 0.199c0.328 0 0.654-0.064 0.906-0.199s7.012-3.767 7.5-4.029c0.489-0.263 0.951-1.286 0.054-1.286h-16.919c-0.897 0-0.435 1.023 0.053 1.286zM18.613 7.489c-0.555 0.289-7.387 3.849-7.727 4.027s-0.578 0.199-0.906 0.199-0.566-0.021-0.906-0.199-7.133-3.739-7.688-4.028c-0.39-0.204-0.386 0.035-0.386 0.219s0 7.293 0 7.293c0 0.42 0.566 1 1 1h16c0.434 0 1-0.58 1-1 0 0 0-7.108 0-7.292s0.004-0.423-0.387-0.219z"></path>
</symbol>
<symbol id="icon-pencil" viewBox="0 0 20 20">
<title>pencil</title>
<path d="M14.69 2.661c-1.894-1.379-3.242-1.349-3.754-1.266-0.144 0.023-0.265 0.106-0.35 0.223l-6.883 9.497c-0.277 0.382-0.437 0.836-0.462 1.307l-0.296 5.624c-0.021 0.405 0.382 0.698 0.76 0.553l5.256-2.010c0.443-0.17 0.828-0.465 1.106-0.849l6.88-9.494c0.089-0.123 0.125-0.273 0.1-0.423-0.084-0.526-0.487-1.802-2.357-3.162zM8.977 15.465l-2.043 0.789c-0.080 0.031-0.169 0.006-0.221-0.062-0.263-0.335-0.576-0.667-1.075-1.030-0.499-0.362-0.911-0.558-1.31-0.706-0.080-0.030-0.131-0.106-0.126-0.192l0.122-2.186 0.549-0.755c0 0 1.229-0.169 2.833 0.998 1.602 1.166 1.821 2.388 1.821 2.388l-0.55 0.756z"></path>
</symbol>
<symbol id="icon-phone" viewBox="0 0 20 20">
<title>phone</title>
<path d="M11.229 11.229c-1.583 1.582-3.417 3.096-4.142 2.371-1.037-1.037-1.677-1.941-3.965-0.102-2.287 1.838-0.53 3.064 0.475 4.068 1.16 1.16 5.484 0.062 9.758-4.211 4.273-4.274 5.368-8.598 4.207-9.758-1.005-1.006-2.225-2.762-4.063-0.475s-0.936 2.927 0.103 3.965c0.722 0.725-0.791 2.559-2.373 4.142z"></path>
</symbol>
<symbol id="icon-plus" viewBox="0 0 20 20">
<title>plus</title>
<path d="M16 10c0 0.553-0.048 1-0.601 1h-4.399v4.399c0 0.552-0.447 0.601-1 0.601s-1-0.049-1-0.601v-4.399h-4.399c-0.552 0-0.601-0.447-0.601-1s0.049-1 0.601-1h4.399v-4.399c0-0.553 0.447-0.601 1-0.601s1 0.048 1 0.601v4.399h4.399c0.553 0 0.601 0.447 0.601 1z"></path>
</symbol>
<symbol id="icon-thumbs-down" viewBox="0 0 20 20">
<title>thumbs-down</title>
<path d="M6.352 12.638c0.133 0.356-3.539 3.634-1.397 6.291 0.501 0.621 2.201-2.975 4.615-4.602 1.331-0.899 4.43-2.811 4.43-3.868v-6.842c0-1.271-4.914-2.617-8.648-2.617-1.369 0-3.352 8.576-3.352 9.939 0 1.367 4.221 1.343 4.352 1.699zM15 12.543c0.658 0 3-0.4 3-3.123v-4.848c0-2.721-2.342-3.021-3-3.021-0.657 0 1 0.572 1 2.26v6.373c0 1.768-1.657 2.359-1 2.359z"></path>
</symbol>
<symbol id="icon-thumbs-up" viewBox="0 0 20 20">
<title>thumbs-up</title>
<path d="M13.648 7.362c-0.133-0.355 3.539-3.634 1.398-6.291-0.501-0.621-2.201 2.975-4.615 4.603-1.332 0.898-4.431 2.81-4.431 3.867v6.842c0 1.271 4.914 2.617 8.648 2.617 1.369 0 3.352-8.576 3.352-9.938 0-1.368-4.221-1.344-4.352-1.7zM5 7.457c-0.658 0-3 0.4-3 3.123v4.848c0 2.721 2.342 3.021 3 3.021 0.657 0-1-0.572-1-2.26v-6.373c0-1.768 1.657-2.359 1-2.359z"></path>
</symbol>
<symbol id="icon-user" viewBox="0 0 20 20">
<title>user</title>
<path d="M7.725 2.146c-1.016 0.756-1.289 1.953-1.239 2.59 0.064 0.779 0.222 1.793 0.222 1.793s-0.313 0.17-0.313 0.854c0.109 1.717 0.683 0.976 0.801 1.729 0.284 1.814 0.933 1.491 0.933 2.481 0 1.649-0.68 2.42-2.803 3.334-2.13 0.918-4.326 2.073-4.326 4.073v1h18v-1c0-2-2.197-3.155-4.328-4.072-2.123-0.914-2.801-1.684-2.801-3.334 0-0.99 0.647-0.667 0.932-2.481 0.119-0.753 0.692-0.012 0.803-1.729 0-0.684-0.314-0.854-0.314-0.854s0.158-1.014 0.221-1.793c0.065-0.817-0.398-2.561-2.3-3.096-0.333-0.34-0.558-0.881 0.466-1.424-2.24-0.105-2.761 1.067-3.954 1.929z"></path>
</symbol>
<symbol id="icon-facebook" viewBox="0 0 20 20">
<title>facebook</title>
<path d="M17 1h-14c-1.1 0-2 0.9-2 2v14c0 1.101 0.9 2 2 2h7v-7h-2v-2.475h2v-2.050c0-2.164 1.212-3.684 3.766-3.684l1.803 0.002v2.605h-1.197c-0.994 0-1.372 0.746-1.372 1.438v1.69h2.568l-0.568 2.474h-2v7h4c1.1 0 2-0.899 2-2v-14c0-1.1-0.9-2-2-2z"></path>
</symbol>
<symbol id="icon-google" viewBox="0 0 20 20">
<title>google</title>
<path d="M1.989 5.589c0 1.494 0.499 2.572 1.482 3.205 0.806 0.52 1.74 0.598 2.226 0.598 0.118 0 0.213-0.006 0.279-0.010 0 0-0.154 1.004 0.59 1.996h-0.034c-1.289 0-5.493 0.269-5.493 3.727 0 3.516 3.861 3.695 4.636 3.695 0.061 0 0.097-0.002 0.097-0.002 0.008 0 0.063 0.002 0.158 0.002 0.497 0 1.782-0.062 2.975-0.643 1.548-0.75 2.333-2.059 2.333-3.885 0-1.764-1.196-2.814-2.069-3.582-0.533-0.469-0.994-0.873-0.994-1.266 0-0.4 0.337-0.701 0.762-1.082 0.689-0.615 1.339-1.492 1.339-3.15 0-1.457-0.189-2.436-1.354-3.057 0.121-0.062 0.551-0.107 0.763-0.137 0.631-0.086 1.554-0.184 1.554-0.699v-0.099h-4.599c-0.046 0.002-4.651 0.172-4.651 4.389zM9.413 14.602c0.088 1.406-1.115 2.443-2.922 2.574-1.835 0.135-3.345-0.691-3.433-2.096-0.043-0.676 0.254-1.336 0.835-1.863 0.589-0.533 1.398-0.863 2.278-0.928 0.104-0.006 0.207-0.012 0.31-0.012 1.699 0.001 2.849 0.999 2.932 2.325zM8.212 4.626c0.451 1.588-0.23 3.246-1.316 3.553-0.125 0.035-0.253 0.052-0.384 0.052-0.994 0-1.979-1.006-2.345-2.393-0.204-0.776-0.187-1.458 0.047-2.112 0.229-0.645 0.643-1.078 1.163-1.225 0.125-0.035 0.254-0.053 0.385-0.053 1.2 0 1.972 0.498 2.45 2.178zM16 8v-3h-2v3h-3v2h3v3h2v-3h3v-2h-3z"></path>
</symbol>
<symbol id="icon-linkedin" viewBox="0 0 20 20">
<title>linkedin</title>
<path d="M5 3c0 1.062-0.71 1.976-2.001 1.976-1.215 0-1.999-0.862-1.999-1.924 0-1.090 0.76-2.052 2-2.052s1.976 0.91 2 2zM1 19v-13h4v13h-4z"></path>
<path d="M7 10.444c0-1.545-0.051-2.836-0.102-3.951h3.594l0.178 1.723h0.076c0.506-0.811 1.746-2 3.822-2 2.532 0 4.432 1.695 4.432 5.342v7.442h-4v-6.861c0-1.594-0.607-2.81-2-2.81-1.062 0-1.594 0.86-1.873 1.569-0.102 0.254-0.127 0.608-0.127 0.963v7.139h-4v-8.556z"></path>
</symbol>
<symbol id="icon-twitter" viewBox="0 0 20 20">
<title>twitter</title>
<path d="M17.316 6.246c0.008 0.162 0.011 0.326 0.011 0.488 0 4.99-3.797 10.742-10.74 10.742-2.133 0-4.116-0.625-5.787-1.697 0.296 0.035 0.596 0.053 0.9 0.053 1.77 0 3.397-0.604 4.688-1.615-1.651-0.031-3.046-1.121-3.526-2.621 0.23 0.043 0.467 0.066 0.71 0.066 0.345 0 0.679-0.045 0.995-0.131-1.727-0.348-3.028-1.873-3.028-3.703 0-0.016 0-0.031 0-0.047 0.509 0.283 1.092 0.453 1.71 0.473-1.013-0.678-1.68-1.832-1.68-3.143 0-0.691 0.186-1.34 0.512-1.898 1.861 2.285 4.644 3.787 7.781 3.945-0.064-0.277-0.097-0.564-0.097-0.861 0-2.084 1.689-3.773 3.774-3.773 1.086 0 2.067 0.457 2.756 1.191 0.859-0.17 1.667-0.484 2.397-0.916-0.282 0.881-0.881 1.621-1.66 2.088 0.764-0.092 1.49-0.293 2.168-0.594-0.506 0.758-1.146 1.422-1.884 1.953z"></path>
</symbol>
</defs>
</svg>
